# xmcd
#
# Track frame offsets: 
#        150
#        23901
#        46210
#        68983
#        83976
#        108482
#        133240
#        150133
#        174142
#        188501
#        214149
#        232054
#        248725
#        268458
#        285093
#
# Disc length: 4103 seconds
#
# Revision: 0
# Processed by: cddbd v1.5.2PL0 Copyright (c) Steve Scherf et al.
# Submitted via: ExactAudioCopyFreeDBPlugin 1.0
#
DISCID=c910050f
DTITLE=29B - STE20试音极品TESTCD
DYEAR=2015
DGENRE=STE
TTITLE0=草原的月亮
TTITLE1=明天你是否依然爱我
TTITLE2=跟往事干杯
TTITLE3=烟雨蒙蒙
TTITLE4=天下最美的草原
TTITLE5=父亲的草原母亲的河
TTITLE6=请到草原来
TTITLE7=为爱痴狂
TTITLE8=梦中的妈妈
TTITLE9=谁在窗外流泪
TTITLE10=思念总在分手后
TTITLE11=其实你不懂我的心
TTITLE12=蒙古汉
TTITLE13=真的真的好爱你
TTITLE14=爱上他的人
EXTD=
EXTT0=
EXTT1=
EXTT2=
EXTT3=
EXTT4=
EXTT5=
EXTT6=
EXTT7=
EXTT8=
EXTT9=
EXTT10=
EXTT11=
EXTT12=
EXTT13=
EXTT14=
PLAYORDER=
